<?xml version="1.0" encoding="UTF-8"?>
<svg xmlns="http://www.w3.org/2000/svg" width="83" height="40" viewBox="0 0 83 40" fill="none">
  <g clip-path="url(#clip0_6401_11332)">
    <path d="M21.1326 2.83457V15.8103C21.1326 15.9772 21.1471 16.1431 21.1766 16.3072L23.015 26.6297C23.1239 27.2463 22.714 27.8348 22.0979 27.9447C22.0296 27.9568 21.9633 27.9624 21.8969 27.9624C21.3579 27.9624 20.8802 27.5768 20.782 27.0266L18.9104 16.5129C18.8959 16.3469 18.8809 16.1819 18.8665 16.016V2.83457C18.8665 1.26911 17.5973 0 16.0319 0H2.83457C1.26911 0 0 1.26911 0 2.83457V37.1654C0 38.7309 1.26911 40 2.83457 40H37.1654C38.7309 40 40 38.7309 40 37.1654V2.83457C40 1.26911 38.7309 0 37.1654 0H23.9672C22.4017 0 21.1326 1.26911 21.1326 2.83457Z" fill="white"></path>
    <path d="M64.7927 16.9621L59.2577 11.428C58.8146 10.9849 58.8146 10.2674 59.2577 9.82424C59.6971 9.3811 60.4165 9.3811 60.8597 9.82424L65.7304 14.6941C66.2619 15.2255 66.9832 15.5242 67.7348 15.5242H79.433C80.9985 15.5242 82.2676 14.2551 82.2676 12.6897V2.83457C82.2676 1.26911 80.9985 0 79.433 0H45.1022C43.5367 0 42.2676 1.26911 42.2676 2.83457V19.3736C42.2676 20.9391 43.5367 22.2082 45.1022 22.2082H57.739C58.4907 22.2082 59.2119 22.5069 59.7434 23.0384L65.2765 28.5715C65.7197 29.0146 65.7197 29.7322 65.2765 30.1753C65.055 30.3969 64.7651 30.5076 64.4758 30.5076C64.1864 30.5076 63.8962 30.3969 63.6751 30.1753L58.8062 25.3064C58.2747 24.7749 57.5534 24.4762 56.8018 24.4762H45.1026C43.5372 24.4762 42.2681 25.7453 42.2681 27.3108V37.165C42.2681 38.7304 43.5372 39.9995 45.1026 39.9995H79.4335C80.999 39.9995 82.2681 38.7304 82.2681 37.165V20.6264C82.2681 19.0609 80.999 17.7918 79.4335 17.7918H66.7976C66.0459 17.7918 65.3242 17.4936 64.7927 16.9621Z" fill="white"></path>
  </g>
  <defs>
    <clipPath id="clip0_6401_11332">
      <rect width="83" height="40" fill="white"></rect>
    </clipPath>
  </defs>
</svg>
