<svg width="20" height="20" viewBox="0 0 20 20" fill="none" xmlns="http://www.w3.org/2000/svg">
<path d="M6.6665 11.6667C9.42793 11.6667 11.6665 9.42808 11.6665 6.66666C11.6665 3.90523 9.42793 1.66666 6.6665 1.66666C3.90508 1.66666 1.6665 3.90523 1.6665 6.66666C1.6665 9.42808 3.90508 11.6667 6.6665 11.6667Z" stroke="#111827" stroke-width="1.25" stroke-linecap="round" stroke-linejoin="round"/>
<path d="M13.3335 18.3333C16.0949 18.3333 18.3335 16.0948 18.3335 13.3333C18.3335 10.5719 16.0949 8.33334 13.3335 8.33334C10.5721 8.33334 8.3335 10.5719 8.3335 13.3333C8.3335 16.0948 10.5721 18.3333 13.3335 18.3333Z" stroke="#111827" stroke-width="1.25" stroke-linecap="round" stroke-linejoin="round"/>
<path d="M10 12.5C11.3807 12.5 12.5 11.3807 12.5 10C12.5 8.61929 11.3807 7.5 10 7.5C8.61929 7.5 7.5 8.61929 7.5 10C7.5 11.3807 8.61929 12.5 10 12.5Z" stroke="#111827" stroke-width="1.25" stroke-linecap="round" stroke-linejoin="round"/>
</svg>
