<svg width="20" height="20" viewBox="0 0 20 20" fill="none" xmlns="http://www.w3.org/2000/svg">
<path d="M10.0002 17.5C11.7683 17.5 13.464 16.7976 14.7142 15.5474C15.9645 14.2972 16.6668 12.6015 16.6668 10.8334C16.6668 9.06524 15.9645 7.36955 14.7142 6.11931C13.464 4.86907 11.7683 4.16669 10.0002 4.16669C8.23205 4.16669 6.53636 4.86907 5.28612 6.11931C4.03588 7.36955 3.3335 9.06524 3.3335 10.8334C3.3335 12.6015 4.03588 14.2972 5.28612 15.5474C6.53636 16.7976 8.23205 17.5 10.0002 17.5Z" stroke="#111827" stroke-width="1.25" stroke-linecap="round" stroke-linejoin="round"/>
<path d="M4.1665 2.5L1.6665 5" stroke="#111827" stroke-width="1.25" stroke-linecap="round" stroke-linejoin="round"/>
<path d="M18.3335 5L15.8335 2.5" stroke="#111827" stroke-width="1.25" stroke-linecap="round" stroke-linejoin="round"/>
<path d="M5.00016 15.8333L3.3335 17.5" stroke="#111827" stroke-width="1.25" stroke-linecap="round" stroke-linejoin="round"/>
<path d="M15 15.8333L16.6667 17.5" stroke="#111827" stroke-width="1.25" stroke-linecap="round" stroke-linejoin="round"/>
<path d="M10 8.33331V13.3333" stroke="#111827" stroke-width="1.25" stroke-linecap="round" stroke-linejoin="round"/>
<path d="M7.5 10.8333H12.5" stroke="#111827" stroke-width="1.25" stroke-linecap="round" stroke-linejoin="round"/>
</svg>
