<svg width="20" height="20" viewBox="0 0 20 20" fill="none" xmlns="http://www.w3.org/2000/svg">
<path d="M16.6665 5H3.33317C2.4127 5 1.6665 5.74619 1.6665 6.66667V13.3333C1.6665 14.2538 2.4127 15 3.33317 15H16.6665C17.587 15 18.3332 14.2538 18.3332 13.3333V6.66667C18.3332 5.74619 17.587 5 16.6665 5Z" stroke="#111827" stroke-width="1.25" stroke-linecap="round" stroke-linejoin="round"/>
<path d="M5.83317 11.6667C6.75365 11.6667 7.49984 10.9205 7.49984 10C7.49984 9.07954 6.75365 8.33334 5.83317 8.33334C4.9127 8.33334 4.1665 9.07954 4.1665 10C4.1665 10.9205 4.9127 11.6667 5.83317 11.6667Z" stroke="#111827" stroke-width="1.25" stroke-linecap="round" stroke-linejoin="round"/>
<path d="M10 10L15.8333 10" stroke="#111827" stroke-width="1.25" stroke-linecap="round" stroke-linejoin="round"/>
</svg>
