<svg width="20" height="20" viewBox="0 0 20 20" fill="none" xmlns="http://www.w3.org/2000/svg">
<path d="M2.5 12.5L5.83333 5.83334L9.16667 12.5" stroke="#111827" stroke-width="1.25" stroke-linecap="round" stroke-linejoin="round"/>
<path d="M3.3335 10.8333H8.3335" stroke="#111827" stroke-width="1.25" stroke-linecap="round" stroke-linejoin="round"/>
<path d="M12.5 9.16668H16.25C16.692 9.16668 17.1159 9.34227 17.4285 9.65483C17.7411 9.96739 17.9167 10.3913 17.9167 10.8333C17.9167 11.2754 17.7411 11.6993 17.4285 12.0119C17.1159 12.3244 16.692 12.5 16.25 12.5H12.5V5.83334H15.8333C16.2754 5.83334 16.6993 6.00894 17.0118 6.3215C17.3244 6.63406 17.5 7.05798 17.5 7.50001C17.5 7.94204 17.3244 8.36596 17.0118 8.67852C16.6993 8.99108 16.2754 9.16668 15.8333 9.16668" stroke="#111827" stroke-width="1.25" stroke-linecap="round" stroke-linejoin="round"/>
</svg>
