<svg width="20" height="20" viewBox="0 0 20 20" fill="none" xmlns="http://www.w3.org/2000/svg">
<path d="M15.8332 9.16667L9.16653 2.5L1.99987 9.66667C1.69449 9.97821 1.52344 10.3971 1.52344 10.8333C1.52344 11.2696 1.69449 11.6885 1.99987 12L6.3332 16.3333C6.99987 17 7.99987 17 8.66653 16.3333L15.8332 9.16667Z" stroke="#111827" stroke-width="1.25" stroke-linecap="round" stroke-linejoin="round"/>
<path d="M4.1665 1.66669L8.33317 5.83335" stroke="#111827" stroke-width="1.25" stroke-linecap="round" stroke-linejoin="round"/>
<path d="M1.6665 10.8333H14.1665" stroke="#111827" stroke-width="1.25" stroke-linecap="round" stroke-linejoin="round"/>
<path d="M18.3333 16.6666C18.3333 17.1087 18.1577 17.5326 17.8452 17.8452C17.5326 18.1577 17.1087 18.3333 16.6667 18.3333C16.2246 18.3333 15.8007 18.1577 15.4882 17.8452C15.1756 17.5326 15 17.1087 15 16.6666C15 15.3333 16.4167 14.6666 16.6667 13.3333C16.9167 14.6666 18.3333 15.3333 18.3333 16.6666Z" stroke="#111827" stroke-width="1.25" stroke-linecap="round" stroke-linejoin="round"/>
</svg>
