<svg width="20" height="20" viewBox="0 0 20 20" fill="none" xmlns="http://www.w3.org/2000/svg">
<g clip-path="url(#clip0_366_11136)">
<path d="M15.8333 2.5H4.16667C3.24619 2.5 2.5 3.24619 2.5 4.16667V15.8333C2.5 16.7538 3.24619 17.5 4.16667 17.5H15.8333C16.7538 17.5 17.5 16.7538 17.5 15.8333V4.16667C17.5 3.24619 16.7538 2.5 15.8333 2.5Z" stroke="#111827" stroke-width="1.25" stroke-linecap="round" stroke-linejoin="round"/>
<path d="M8.5 9.5L5.5 12.5V14H10L11.5 12.5" stroke="#111827" stroke-width="1.25" stroke-linecap="round" stroke-linejoin="round"/>
<path d="M14.9999 10L12.6999 12.3C12.513 12.4832 12.2617 12.5859 11.9999 12.5859C11.7382 12.5859 11.4868 12.4832 11.2999 12.3L8.69992 9.7C8.51669 9.51307 8.41406 9.26175 8.41406 9C8.41406 8.73825 8.51669 8.48693 8.69992 8.3L10.9999 6" stroke="#111827" stroke-width="1.25" stroke-linecap="round" stroke-linejoin="round"/>
</g>
<defs>
<clipPath id="clip0_366_11136">
<rect width="20" height="20" fill="white"/>
</clipPath>
</defs>
</svg>
