<svg width="20" height="20" viewBox="0 0 20 20" fill="none" xmlns="http://www.w3.org/2000/svg">
<path d="M9.16667 14.1667C9.16667 15.0507 8.81548 15.8986 8.19036 16.5237C7.56524 17.1488 6.71739 17.5 5.83333 17.5C4.94928 17.5 4.10143 17.1488 3.47631 16.5237C2.85119 15.8986 2.5 15.0507 2.5 14.1667V4.16667C2.5 3.72464 2.67559 3.30072 2.98816 2.98816C3.30072 2.67559 3.72464 2.5 4.16667 2.5H7.5C7.94203 2.5 8.36595 2.67559 8.67851 2.98816C8.99107 3.30072 9.16667 3.72464 9.16667 4.16667V14.1667Z" stroke="#0017E1" stroke-width="1.25" stroke-linecap="round" stroke-linejoin="round"/>
<path d="M13.9168 10.8333H15.8335C16.2755 10.8333 16.6994 11.0089 17.012 11.3215C17.3246 11.6341 17.5002 12.058 17.5002 12.5V15.8333C17.5002 16.2754 17.3246 16.6993 17.012 17.0119C16.6994 17.3244 16.2755 17.5 15.8335 17.5H5.8335" stroke="#0017E1" stroke-width="1.25" stroke-linecap="round" stroke-linejoin="round"/>
<path d="M5.8335 14.1667H5.84183" stroke="#0017E1" stroke-width="1.25" stroke-linecap="round" stroke-linejoin="round"/>
<path d="M9.16667 6.66666L11.0833 4.75C11.2694 4.56326 11.4906 4.41516 11.7341 4.3142C11.9776 4.21325 12.2387 4.16143 12.5024 4.16174C12.766 4.16205 13.0269 4.21448 13.2702 4.31601C13.5135 4.41753 13.7344 4.56616 13.92 4.75333L15.5 6.33333C15.6922 6.51817 15.8454 6.73957 15.9508 6.98451C16.0561 7.22944 16.1114 7.49297 16.1135 7.7596C16.1155 8.02623 16.0642 8.29056 15.9625 8.53707C15.8609 8.78357 15.711 9.00727 15.5217 9.195L8.25 16.5" stroke="#0017E1" stroke-width="1.25" stroke-linecap="round" stroke-linejoin="round"/>
</svg>
