<svg width="20" height="20" viewBox="0 0 20 20" fill="none" xmlns="http://www.w3.org/2000/svg">
<g clip-path="url(#clip0_370_11416)">
<path d="M15.8333 2.5H4.16667C3.24619 2.5 2.5 3.24619 2.5 4.16667V15.8333C2.5 16.7538 3.24619 17.5 4.16667 17.5H15.8333C16.7538 17.5 17.5 16.7538 17.5 15.8333V4.16667C17.5 3.24619 16.7538 2.5 15.8333 2.5Z" stroke="#111827" stroke-width="1.25" stroke-linecap="round" stroke-linejoin="round"/>
<path d="M12.3333 8H7.66667C7.29848 8 7 8.29848 7 8.66667V13.3333C7 13.7015 7.29848 14 7.66667 14H12.3333C12.7015 14 13 13.7015 13 13.3333V8.66667C13 8.29848 12.7015 8 12.3333 8Z" stroke="#111827" stroke-linecap="round" stroke-linejoin="round"/>
<path d="M9 10.5C9.27614 10.5 9.5 10.2761 9.5 10C9.5 9.72386 9.27614 9.5 9 9.5C8.72386 9.5 8.5 9.72386 8.5 10C8.5 10.2761 8.72386 10.5 9 10.5Z" stroke="#111827" stroke-linecap="round" stroke-linejoin="round"/>
<path d="M13 11.8287L11.9713 10.7119C11.8463 10.5762 11.6768 10.5 11.5 10.5C11.3232 10.5 11.1537 10.5762 11.0287 10.7119L8 14" stroke="#111827" stroke-linecap="round" stroke-linejoin="round"/>
<path d="M14 6L15 7L14 8" stroke="#111827" stroke-linecap="round" stroke-linejoin="round"/>
<path d="M6 6L5 7L6 8" stroke="#111827" stroke-linecap="round" stroke-linejoin="round"/>
</g>
<defs>
<clipPath id="clip0_370_11416">
<rect width="20" height="20" fill="white"/>
</clipPath>
</defs>
</svg>
