<svg width="20" height="20" viewBox="0 0 20 20" fill="none" xmlns="http://www.w3.org/2000/svg">
<path d="M10.0001 18.3334C14.6025 18.3334 18.3334 14.6024 18.3334 10C18.3334 5.39765 14.6025 1.66669 10.0001 1.66669C5.39771 1.66669 1.66675 5.39765 1.66675 10C1.66675 14.6024 5.39771 18.3334 10.0001 18.3334Z" stroke="#111827" stroke-width="1.25" stroke-linecap="round" stroke-linejoin="round"/>
<path d="M7.5 11.3095C7.5 11.3095 7.86458 10.9524 8.95833 10.9524C10.0521 10.9524 10.7813 11.6667 11.875 11.6667C12.9688 11.6667 13.3333 11.3095 13.3333 11.3095V7.02383C13.3333 7.02383 12.9688 7.38097 11.875 7.38097C10.7813 7.38097 10.0521 6.66669 8.95833 6.66669C7.86458 6.66669 7.5 7.02383 7.5 7.02383V11.3095Z" stroke="#111827" stroke-width="1.25" stroke-linecap="round" stroke-linejoin="round"/>
<path d="M7.5 14.1667V11.6667" stroke="#111827" stroke-width="1.25" stroke-linecap="round" stroke-linejoin="round"/>
</svg>
