<svg width="20" height="20" viewBox="0 0 20 20" fill="none" xmlns="http://www.w3.org/2000/svg">
<path d="M10.0283 10.5675C9.99824 10.4921 9.99094 10.4096 10.0073 10.3302C10.0237 10.2507 10.063 10.1778 10.1203 10.1204C10.1777 10.063 10.2506 10.0237 10.3301 10.0074C10.4096 9.99101 10.4921 9.9983 10.5674 10.0283L18.0674 12.945C18.1479 12.9764 18.2165 13.032 18.2639 13.1042C18.3114 13.1763 18.3352 13.2614 18.3322 13.3477C18.3292 13.4339 18.2994 13.5172 18.2471 13.5858C18.1947 13.6544 18.1224 13.7051 18.0399 13.7308L15.1699 14.6208C15.0405 14.6609 14.9227 14.7319 14.8268 14.8277C14.731 14.9236 14.66 15.0413 14.6199 15.1708L13.7308 18.04C13.7051 18.1224 13.6544 18.1948 13.5857 18.2472C13.5171 18.2995 13.4339 18.3293 13.3476 18.3323C13.2613 18.3353 13.1762 18.3114 13.1041 18.264C13.032 18.2166 12.9764 18.1479 12.9449 18.0675L10.0283 10.5675Z" stroke="#111827" stroke-width="1.25" stroke-linecap="round" stroke-linejoin="round"/>
<path d="M17.5 9.16667V4.16667C17.5 3.72464 17.3244 3.30072 17.0118 2.98816C16.6993 2.67559 16.2754 2.5 15.8333 2.5H4.16667C3.72464 2.5 3.30072 2.67559 2.98816 2.98816C2.67559 3.30072 2.5 3.72464 2.5 4.16667V15.8333C2.5 16.2754 2.67559 16.6993 2.98816 17.0118C3.30072 17.3244 3.72464 17.5 4.16667 17.5H9.16667" stroke="#111827" stroke-width="1.25" stroke-linecap="round" stroke-linejoin="round"/>
</svg>
