<svg width="20" height="20" viewBox="0 0 20 20" fill="none" xmlns="http://www.w3.org/2000/svg">
<g clip-path="url(#clip0_401_11380)">
<path d="M15.4165 0.833374H7.9165C5.84544 0.833374 4.1665 2.51231 4.1665 4.58337V12.0834C4.1665 14.1544 5.84544 15.8334 7.9165 15.8334H15.4165C17.4876 15.8334 19.1665 14.1544 19.1665 12.0834V4.58337C19.1665 2.51231 17.4876 0.833374 15.4165 0.833374Z" stroke="#111827" stroke-width="1.25" stroke-linecap="round" stroke-linejoin="round"/>
<path d="M7.96214 14.9866C8.07012 15.7148 7.94574 16.4585 7.60668 17.112C7.26762 17.7654 6.73114 18.2953 6.07356 18.6263C5.41598 18.9573 4.67078 19.0725 3.94396 18.9555C3.21713 18.8386 2.54568 18.4954 2.02513 17.9749C1.50457 17.4543 1.16141 16.7829 1.04446 16.056C0.927499 15.3292 1.0427 14.584 1.37368 13.9264C1.70466 13.2689 2.23456 12.7324 2.88801 12.3933C3.54145 12.0543 4.28518 11.9299 5.01339 12.0379C5.7562 12.148 6.44388 12.4941 6.97487 13.0251C7.50586 13.5561 7.85199 14.2438 7.96214 14.9866Z" stroke="#111827" stroke-width="1.25" stroke-linecap="round" stroke-linejoin="round"/>
<path d="M16 5H8" stroke="#111827" stroke-width="1.25" stroke-linecap="round" stroke-linejoin="round"/>
<path d="M13 8H7" stroke="#111827" stroke-width="1.25" stroke-linecap="round" stroke-linejoin="round"/>
<path d="M16 11H10" stroke="#111827" stroke-width="1.25" stroke-linecap="round" stroke-linejoin="round"/>
</g>
<defs>
<clipPath id="clip0_401_11380">
<rect width="20" height="20" fill="white"/>
</clipPath>
</defs>
</svg>
