<svg width="20" height="20" viewBox="0 0 20 20" fill="none" xmlns="http://www.w3.org/2000/svg">
<g clip-path="url(#clip0_358_10983)">
<path d="M15.4167 0.833328H7.91675C5.84568 0.833328 4.16675 2.51226 4.16675 4.58333V12.0833C4.16675 14.1544 5.84568 15.8333 7.91675 15.8333H15.4167C17.4878 15.8333 19.1667 14.1544 19.1667 12.0833V4.58333C19.1667 2.51226 17.4878 0.833328 15.4167 0.833328Z" stroke="#111827" stroke-width="1.25" stroke-linecap="round" stroke-linejoin="round"/>
<path d="M9.95132 13.8399C10.0902 14.7762 9.93024 15.7324 9.4943 16.5726C9.05836 17.4127 8.36861 18.094 7.52315 18.5196C6.67769 18.9451 5.71958 19.0932 4.78509 18.9428C3.85059 18.7925 2.98731 18.3513 2.31802 17.682C1.64874 17.0127 1.20753 16.1494 1.05716 15.2149C0.906784 14.2804 1.0549 13.3223 1.48045 12.4768C1.90599 11.6314 2.58729 10.9416 3.42744 10.5057C4.26758 10.0698 5.2238 9.90984 6.16008 10.0487C7.11511 10.1903 7.99928 10.6353 8.68198 11.318C9.36468 12.0007 9.8097 12.8849 9.95132 13.8399Z" stroke="#111827" stroke-width="1.25" stroke-linecap="round" stroke-linejoin="round"/>
</g>
<defs>
<clipPath id="clip0_358_10983">
<rect width="20" height="20" fill="white"/>
</clipPath>
</defs>
</svg>
