<svg width="20" height="20" viewBox="0 0 20 20" fill="none" xmlns="http://www.w3.org/2000/svg">
<path d="M1.66675 6.66669V15.8334C1.66675 16.75 2.41675 17.5 3.33341 17.5H15.0001" stroke="#111827" stroke-width="1.25" stroke-linecap="round" stroke-linejoin="round"/>
<path d="M16.8519 1.66669H6.48148C5.66328 1.66669 5 2.32997 5 3.14817V13.5185C5 14.3367 5.66328 15 6.48148 15H16.8519C17.6701 15 18.3333 14.3367 18.3333 13.5185V3.14817C18.3333 2.32997 17.6701 1.66669 16.8519 1.66669Z" stroke="#111827" stroke-width="1.25" stroke-linecap="round" stroke-linejoin="round"/>
<path d="M9.58325 7.5C10.2736 7.5 10.8333 6.94036 10.8333 6.25C10.8333 5.55964 10.2736 5 9.58325 5C8.8929 5 8.33325 5.55964 8.33325 6.25C8.33325 6.94036 8.8929 7.5 9.58325 7.5Z" stroke="#111827" stroke-width="1.25" stroke-linecap="round" stroke-linejoin="round"/>
<path d="M18.3333 10.3472L16.1046 7.95409C15.8337 7.66334 15.4663 7.5 15.0833 7.5C14.7003 7.5 14.333 7.66334 14.0621 7.95409L7.5 15" stroke="#111827" stroke-width="1.25" stroke-linecap="round" stroke-linejoin="round"/>
</svg>
