<svg width="20" height="20" viewBox="0 0 20 20" fill="none" xmlns="http://www.w3.org/2000/svg">
<path d="M1.66675 6.66665V4.99998C1.66675 4.55795 1.84234 4.13403 2.1549 3.82147C2.46746 3.50891 2.89139 3.33331 3.33341 3.33331H16.6667C17.1088 3.33331 17.5327 3.50891 17.8453 3.82147C18.1578 4.13403 18.3334 4.55795 18.3334 4.99998V15C18.3334 15.442 18.1578 15.8659 17.8453 16.1785C17.5327 16.4911 17.1088 16.6666 16.6667 16.6666H11.6667" stroke="#111827" stroke-width="1.25" stroke-linecap="round" stroke-linejoin="round"/>
<path d="M1.66675 10C3.3729 10.1811 4.96539 10.9416 6.17859 12.1548C7.3918 13.368 8.15236 14.9605 8.33341 16.6667" stroke="#111827" stroke-width="1.25" stroke-linecap="round" stroke-linejoin="round"/>
<path d="M1.66675 13.3333C2.49396 13.4874 3.25514 13.8883 3.85013 14.4833C4.44511 15.0782 4.84602 15.8394 5.00008 16.6666" stroke="#111827" stroke-width="1.25" stroke-linecap="round" stroke-linejoin="round"/>
<path d="M1.66675 16.6667H1.67508" stroke="#111827" stroke-width="1.25" stroke-linecap="round" stroke-linejoin="round"/>
<path d="M14.1666 9.16667C14.6268 9.16667 14.9999 8.79357 14.9999 8.33333C14.9999 7.8731 14.6268 7.5 14.1666 7.5C13.7063 7.5 13.3333 7.8731 13.3333 8.33333C13.3333 8.79357 13.7063 9.16667 14.1666 9.16667Z" stroke="#111827" stroke-linecap="round" stroke-linejoin="round"/>
</svg>
