<svg width="20" height="20" viewBox="0 0 20 20" fill="none" xmlns="http://www.w3.org/2000/svg">
<path fill-rule="evenodd" clip-rule="evenodd" d="M18.6667 14.6668V5.33341H1.33333V14.6668H18.6667ZM20 5.33341V14.6668C20 15.4031 19.4031 16.0001 18.6667 16.0001H1.33333C0.596953 16.0001 0 15.4031 0 14.6668V5.33341C0 4.59704 0.596953 4.00008 1.33333 4.00008H18.6667C19.4031 4.00008 20 4.59704 20 5.33341ZM2.66667 7C2.66667 6.8159 2.81591 6.66666 3 6.66666H7.66667C7.85076 6.66666 8 6.8159 8 7V13C8 13.1841 7.85076 13.3333 7.66667 13.3333H3C2.81591 13.3333 2.66667 13.1841 2.66667 13V7ZM10 9.33333C9.63181 9.33333 9.33333 9.63181 9.33333 10C9.33333 10.3682 9.63181 10.6667 10 10.6667H14C14.3681 10.6667 14.6667 10.3682 14.6667 10C14.6667 9.63181 14.3681 9.33333 14 9.33333H10ZM9.33333 12.6667C9.33333 12.2985 9.63181 12 10 12H16.6667C17.0348 12 17.3333 12.2985 17.3333 12.6667C17.3333 13.0349 17.0348 13.3333 16.6667 13.3333H10C9.63181 13.3333 9.33333 13.0349 9.33333 12.6667ZM10 6.66666C9.63181 6.66666 9.33333 6.96514 9.33333 7.33333C9.33333 7.70152 9.63181 8 10 8H15.3333C15.7015 8 16 7.70152 16 7.33333C16 6.96514 15.7015 6.66666 15.3333 6.66666H10Z" fill="#111827"/>
</svg>
