<svg width="20" height="20" viewBox="0 0 20 20" fill="none" xmlns="http://www.w3.org/2000/svg">
<path d="M14.1667 13.3333H5.83341C4.91294 13.3333 4.16675 14.0795 4.16675 15V16.6666C4.16675 17.5871 4.91294 18.3333 5.83341 18.3333H14.1667C15.0872 18.3333 15.8334 17.5871 15.8334 16.6666V15C15.8334 14.0795 15.0872 13.3333 14.1667 13.3333Z" stroke="#111827" stroke-width="1.25" stroke-linecap="round" stroke-linejoin="round"/>
<path d="M12.4999 1.66669H7.49992C6.57944 1.66669 5.83325 2.41288 5.83325 3.33335V5.00002C5.83325 5.9205 6.57944 6.66669 7.49992 6.66669H12.4999C13.4204 6.66669 14.1666 5.9205 14.1666 5.00002V3.33335C14.1666 2.41288 13.4204 1.66669 12.4999 1.66669Z" stroke="#111827" stroke-width="1.25" stroke-linecap="round" stroke-linejoin="round"/>
<path d="M1.66675 10H18.3334" stroke="#111827" stroke-width="1.25" stroke-linecap="round" stroke-linejoin="round"/>
</svg>
