<svg width="20" height="20" viewBox="0 0 20 20" fill="none" xmlns="http://www.w3.org/2000/svg">
<path d="M8.33325 1.66669H11.6666" stroke="#111827" stroke-width="1.25" stroke-linecap="round" stroke-linejoin="round"/>
<path d="M10 11.6666V8.33331" stroke="#111827" stroke-width="1.25" stroke-linecap="round" stroke-linejoin="round"/>
<path d="M3.33325 10.8334C3.5373 9.21333 4.3288 7.72453 5.55763 6.64931C6.78645 5.57408 8.36715 4.98722 9.99992 5.00002C11.0783 5.00117 12.1403 5.26389 13.0948 5.76566C14.0493 6.26742 14.8679 6.99325 15.4803 7.88087C16.0927 8.7685 16.4806 9.79143 16.6107 10.8619C16.7409 11.9324 16.6095 13.0185 16.2277 14.027C15.8459 15.0355 15.2251 15.9364 14.4187 16.6523C13.6122 17.3682 12.6441 17.8778 11.5975 18.1374C10.5508 18.3969 9.45679 18.3987 8.40928 18.1425C7.36177 17.8864 6.39203 17.38 5.58325 16.6667L3.33325 14.6667" stroke="#111827" stroke-width="1.25" stroke-linecap="round" stroke-linejoin="round"/>
<path d="M7.49992 14.1667H3.33325V18.3334" stroke="#111827" stroke-width="1.25" stroke-linecap="round" stroke-linejoin="round"/>
</svg>
