<svg width="20" height="20" viewBox="0 0 20 20" fill="none" xmlns="http://www.w3.org/2000/svg">
<path d="M10 14.1666V18.3333" stroke="#111827" stroke-width="1.25" stroke-linecap="round" stroke-linejoin="round"/>
<path d="M4.1665 14.1666H15.8332V12.7C15.833 12.3899 15.7463 12.086 15.5829 11.8225C15.4195 11.559 15.1858 11.3463 14.9082 11.2083L13.4248 10.4583C13.1472 10.3203 12.9135 10.1076 12.7501 9.84409C12.5867 9.58057 12.5 9.2767 12.4998 8.96663V4.99996H13.3332C13.7752 4.99996 14.1991 4.82436 14.5117 4.5118C14.8242 4.19924 14.9998 3.77532 14.9998 3.33329C14.9998 2.89127 14.8242 2.46734 14.5117 2.15478C14.1991 1.84222 13.7752 1.66663 13.3332 1.66663H6.6665C6.22448 1.66663 5.80055 1.84222 5.48799 2.15478C5.17543 2.46734 4.99984 2.89127 4.99984 3.33329C4.99984 3.77532 5.17543 4.19924 5.48799 4.5118C5.80055 4.82436 6.22448 4.99996 6.6665 4.99996H7.49984V8.96663C7.49967 9.2767 7.41301 9.58057 7.2496 9.84409C7.08619 10.1076 6.85251 10.3203 6.57484 10.4583L5.0915 11.2083C4.81383 11.3463 4.58015 11.559 4.41674 11.8225C4.25333 12.086 4.16667 12.3899 4.1665 12.7V14.1666Z" stroke="#111827" stroke-width="1.25" stroke-linecap="round" stroke-linejoin="round"/>
</svg>
