<svg width="20" height="20" viewBox="0 0 20 20" fill="none" xmlns="http://www.w3.org/2000/svg">
<path d="M10.0001 2.5V5.83333M10.0001 5.83333H12.5001M10.0001 5.83333V10M10.0001 17.5V14.1667M10.0001 14.1667V10M10.0001 14.1667H12.5001M12.5001 5.83333C12.5001 6.75381 13.2462 7.5 14.1667 7.5H15.8333C16.7538 7.5 17.5 6.75381 17.5 5.83333C17.5 4.91286 16.7538 4.16667 15.8333 4.16667H14.1667C13.2462 4.16667 12.5001 4.91286 12.5001 5.83333ZM10.0001 10H7.5M7.5 10C7.5 10.9205 6.75381 11.6667 5.83333 11.6667H4.16667C3.24619 11.6667 2.5 10.9205 2.5 10C2.5 9.0795 3.24619 8.33333 4.16667 8.33333H5.83333C6.75381 8.33333 7.5 9.0795 7.5 10ZM12.5001 14.1667C12.5001 15.0872 13.2462 15.8333 14.1667 15.8333H15.8333C16.7538 15.8333 17.5 15.0872 17.5 14.1667C17.5 13.2462 16.7538 12.5 15.8333 12.5H14.1667C13.2462 12.5 12.5001 13.2462 12.5001 14.1667Z" stroke="#111827" stroke-width="1.25" stroke-linecap="round"/>
</svg>
