<svg width="20" height="20" viewBox="0 0 20 20" fill="none" xmlns="http://www.w3.org/2000/svg">
<path d="M10.0001 15.8333C8.08342 15.8333 4.66675 15.6667 3.25008 15.3333C2.66675 15.1667 2.25008 14.75 2.08341 14.1667C1.83341 13.25 1.66675 11.3333 1.66675 9.99999C1.66675 8.66666 1.83341 6.74999 2.08341 5.83332C2.25008 5.24999 2.66675 4.83332 3.25008 4.66666C4.66675 4.33332 8.08342 4.16666 10.0001 4.16666C11.9167 4.16666 15.3334 4.33332 16.7501 4.66666C17.3334 4.83332 17.7501 5.24999 17.9167 5.83332C18.1667 6.74999 18.3334 8.66666 18.3334 9.99999C18.3334 11.3333 18.1667 13.25 17.9167 14.1667C17.7501 14.75 17.3334 15.1667 16.7501 15.3333C15.3334 15.6667 11.9167 15.8333 10.0001 15.8333Z" stroke="#111827" stroke-width="1.25" stroke-linecap="round" stroke-linejoin="round"/>
<path d="M8.33325 12.5L12.4999 10L8.33325 7.5V12.5Z" stroke="#111827" stroke-width="1.25" stroke-linecap="round" stroke-linejoin="round"/>
</svg>
