<svg width="20" height="20" viewBox="0 0 20 20" fill="none" xmlns="http://www.w3.org/2000/svg">
<g clip-path="url(#clip0_423_11443)">
<path d="M18 13.5L19 14.5L18 15.5" stroke="#111827" stroke-width="1.25" stroke-linecap="round" stroke-linejoin="round"/>
<path d="M2 5.5L1 6.5L2 7.5" stroke="#111827" stroke-width="1.25" stroke-linecap="round" stroke-linejoin="round"/>
<g clip-path="url(#clip1_423_11443)">
<path fill-rule="evenodd" clip-rule="evenodd" d="M8.7451 9C8.37037 9 8.12636 9.11789 7.9085 9.51368L6.91503 11.3242V9.71579C6.91503 9.23579 6.67974 9 6.24401 9C5.80828 9 5.62527 9.14316 5.40741 9.54737L4.46623 11.3242V9.73263C4.46623 9.21895 4.24837 9 3.71678 9H2.63617C2.22658 9 2 9.18526 2 9.52211C2 9.85895 2.21786 10.0611 2.61874 10.0611H3.06318V12.0905C3.06318 12.6632 3.46405 13 4.03922 13C4.61438 13 4.87582 12.7811 5.1634 12.2674L5.79085 11.1305V12.0905C5.79085 12.6547 6.17429 13 6.75817 13C7.34205 13 7.55991 12.8063 7.89107 12.2674L9.33769 9.90947C9.65142 9.39579 9.43355 9 8.73638 9C8.73638 9 8.73638 9 8.7451 9Z" fill="#111827"/>
<path fill-rule="evenodd" clip-rule="evenodd" d="M11.4644 9C10.2792 9 9.38159 9.85053 9.38159 11.0042C9.38159 12.1579 10.2879 13 11.4644 13C12.6409 13 13.5385 12.1495 13.5472 11.0042C13.5472 9.85053 12.6409 9 11.4644 9ZM11.4644 11.7705C11.0199 11.7705 10.7149 11.4505 10.7149 11.0042C10.7149 10.5579 11.0199 10.2295 11.4644 10.2295C11.9088 10.2295 12.2138 10.5579 12.2138 11.0042C12.2138 11.4505 11.9175 11.7705 11.4644 11.7705Z" fill="#111827"/>
<path fill-rule="evenodd" clip-rule="evenodd" d="M15.9175 9C14.741 9 13.8347 9.85053 13.8347 11.0042C13.8347 12.1579 14.741 13 15.9175 13C17.094 13 18.0003 12.1495 18.0003 11.0042C18.0003 9.85895 17.094 9 15.9175 9ZM15.9175 11.7705C15.4643 11.7705 15.1768 11.4505 15.1768 11.0042C15.1768 10.5579 15.4731 10.2295 15.9175 10.2295C16.3619 10.2295 16.667 10.5579 16.667 11.0042C16.667 11.4505 16.3707 11.7705 15.9175 11.7705Z" fill="#111827"/>
</g>
</g>
<defs>
<clipPath id="clip0_423_11443">
<rect width="20" height="20" fill="white"/>
</clipPath>
<clipPath id="clip1_423_11443">
<rect width="16" height="4" fill="white" transform="translate(2 9)"/>
</clipPath>
</defs>
</svg>
