<svg width="20" height="20" viewBox="0 0 20 20" fill="none" xmlns="http://www.w3.org/2000/svg">
<path d="M9.99984 15.8333C8.08317 15.8333 4.6665 15.6666 3.24984 15.3333C2.6665 15.1666 2.24984 14.75 2.08317 14.1666C1.83317 13.25 1.6665 11.3333 1.6665 9.99996C1.6665 8.66663 1.83317 6.74996 2.08317 5.83329C2.24984 5.24996 2.6665 4.83329 3.24984 4.66663C4.6665 4.33329 8.08317 4.16663 9.99984 4.16663C11.9165 4.16663 15.3332 4.33329 16.7498 4.66663C17.3332 4.83329 17.7498 5.24996 17.9165 5.83329C18.1665 6.74996 18.3332 8.66663 18.3332 9.99996C18.3332 11.3333 18.1665 13.25 17.9165 14.1666C17.7498 14.75 17.3332 15.1666 16.7498 15.3333C15.3332 15.6666 11.9165 15.8333 9.99984 15.8333Z" stroke="#111827" stroke-width="1.25" stroke-linecap="round" stroke-linejoin="round"/>
<path d="M5 12.5L9.16667 10L5 7.5V12.5Z" stroke="#111827" stroke-width="1.25" stroke-linecap="round" stroke-linejoin="round"/>
<path d="M12.5 9.88099C12.5 9.88099 12.6562 9.76195 13.125 9.76195C13.5938 9.76195 13.9062 10 14.375 10C14.8438 10 15 9.88099 15 9.88099V8.45242C15 8.45242 14.8438 8.57147 14.375 8.57147C13.9062 8.57147 13.5938 8.33337 13.125 8.33337C12.6562 8.33337 12.5 8.45242 12.5 8.45242V9.88099Z" stroke="#111827" stroke-linecap="round" stroke-linejoin="round"/>
<path d="M12.5 11.6667V10" stroke="#111827" stroke-linecap="round" stroke-linejoin="round"/>
</svg>
